<svg width="141" height="79" fill="none" xmlns="http://www.w3.org/2000/svg"><g clip-path="url(#clip0)"><g clip-path="url(#clip1)"><path d="M5.86 28.545c-.713.777.785 1.637 2.044 1.175 6.836-2.508 18.305-4.796 32.953-.581 24.426 7.028 37.067 11.266 37.067 11.266s-14.87 1.88-28.158 7.447c-12.79 5.357-28.806 8.133-42.019 2.983-1.24-.484-2.727.305-2.073 1.102 5.074 6.18 15.345 13.191 36.005 14.32 6.313.393 15.164.12 26.362-1.82 14.192-2.495 20.85-5.75 23.719-7.65.858-.569.122-1.488-1.164-1.463-15.272.304-19.086-3.217-10.323-5.032 3.5-.725 9.538-1.079 16.88-.952 12.226.211 24.848-1.705 35.156-6.233 2.68-1.177 5.19-2.565 7.338-4.171.777-.581.021-1.457-1.228-1.424-8.294.218-32.04-.52-60.2-13.546-26.126-11.822-46.417-7.766-51.92-6.298-10.54 2.807-16.772 6.868-20.44 10.877z" fill="#6C26FF"/></g><path d="M1.211 44.105c-.496 0-.248-1.28-.248-1.28s.745-1.534.497-2.046c-.249-.511-1.241-1.023-.993-2.046.248-1.023 14.645-1.79 15.39-2.302.745-.511 7.997-4.387 9.93-4.86 1.931-.473 9.68-.767 12.163.767 2.482 1.535 7.198 2.814 7.198 2.814s6.454-.256 6.95 0c.497.256-.248 1.79 0 2.302.249.512.994.768 1.242 1.28.248.51.496 5.37.496 5.37h-5.212s-.745-4.603-5.462-4.603c-4.716 0-4.964 4.604-4.964 4.604H20.822s.248-4.86-4.965-5.116c-5.213-.256-5.461 5.116-5.461 5.116H1.211z" fill="#6C26FF" stroke="#6C26FF" stroke-width=".427" stroke-linecap="round" stroke-linejoin="round"/><path d="M29.646 32.353c-3.586.256-10.066 4.093-10.066 4.093h18.411c.952 0 4.178-1.279 4.178-1.279s-8.936-3.07-12.523-2.814z" fill="#fff" stroke="#6C26FF" stroke-width=".427" stroke-linecap="round" stroke-linejoin="round"/><path d="M19.222 43.849c0 1.908-1.595 3.494-3.613 3.494s-3.614-1.586-3.614-3.494c0-1.908 1.596-3.494 3.614-3.494s3.613 1.586 3.613 3.494zm27.802.511c0 1.909-1.596 3.495-3.613 3.495-2.018 0-3.614-1.586-3.614-3.494 0-1.908 1.596-3.494 3.614-3.494 2.017 0 3.613 1.586 3.613 3.494z" stroke="#6C26FF" stroke-width="1.709"/></g><defs><clipPath id="clip0"><path fill="#fff" d="M0 0h141v78.191H0z"/></clipPath><clipPath id="clip1"><path fill="#fff" transform="rotate(90.99 69.152 70.25)" d="M0 0h80.873v134.43H0z"/></clipPath></defs></svg>