<svg width="141" height="79" viewBox="0 0 141 79" fill="none" xmlns="http://www.w3.org/2000/svg">
<g clip-path="url(#clip0)">
<g clip-path="url(#clip1)">
<path d="M5.85907 28.5447C5.14745 29.3225 6.64452 30.1818 7.90385 29.7199C14.7398 27.2124 26.2093 24.9243 40.8568 29.1387C65.2828 36.1667 77.9235 40.4048 77.9235 40.4048C77.9235 40.4048 63.054 42.2858 49.7657 47.8519C36.9766 53.2089 20.9604 55.9852 7.74699 50.8348C6.50685 50.3514 5.02019 51.1403 5.67407 51.9365C10.748 58.117 21.0188 65.1282 41.6792 66.2563C47.9915 66.6496 56.8432 66.3762 68.0406 64.4378C82.2331 61.9419 88.8917 58.687 91.7598 56.7867C92.6179 56.2183 91.882 55.2986 90.5959 55.3242C75.3236 55.6284 71.5102 52.1072 80.2727 50.2919C83.7726 49.5669 89.8105 49.2132 97.1538 49.3401C109.379 49.5514 122.001 47.635 132.309 43.1074C134.989 41.9301 137.499 40.5416 139.647 38.9359C140.424 38.3546 139.668 37.4794 138.419 37.5122C130.125 37.7303 106.379 36.9925 78.219 23.966C52.0932 12.1445 31.8018 16.1997 26.2996 17.6679C15.7589 20.4748 9.52707 24.5364 5.85907 28.5447Z" fill="#6C26FF"/>
</g>
<path d="M1.21147 44.1048C0.715013 44.1048 0.963243 42.8259 0.963243 42.8259C0.963243 42.8259 1.70793 41.2911 1.4597 40.7795C1.21148 40.2679 0.218544 39.7563 0.466774 38.7332C0.715005 37.71 15.1124 36.9426 15.8571 36.431C16.6018 35.9195 23.8541 32.0441 25.7863 31.571C27.7185 31.0979 35.4673 30.8036 37.9496 32.3384C40.4319 33.8731 45.1483 35.1521 45.1483 35.1521C45.1483 35.1521 51.6023 34.8963 52.0987 35.1521C52.5952 35.4079 51.8505 36.9426 52.0987 37.4542C52.347 37.9658 53.0916 38.2216 53.3399 38.7332C53.5881 39.2448 53.8364 44.1048 53.8364 44.1048L48.6235 44.1048C48.6235 44.1048 47.8788 39.5006 43.1624 39.5006C38.4461 39.5006 38.1978 44.1048 38.1978 44.1048L20.8217 44.1048C20.8217 44.1048 21.0699 39.2448 15.8571 38.989C10.6442 38.7332 10.396 44.1048 10.396 44.1048L1.21147 44.1048Z" fill="#6C26FF" stroke="#6C26FF" stroke-width="0.427273" stroke-linecap="round" stroke-linejoin="round"/>
<path d="M29.6464 32.3535C26.0596 32.6093 19.5805 36.4462 19.5805 36.4462L37.9914 36.4462C38.9425 36.4462 42.1695 35.1672 42.1695 35.1672C42.1695 35.1672 33.2332 32.0977 29.6464 32.3535Z" fill="white" stroke="#6C26FF" stroke-width="0.427273" stroke-linecap="round" stroke-linejoin="round"/>
<path d="M19.2224 43.849C19.2224 45.757 17.6266 47.343 15.6088 47.343C13.5911 47.343 11.9952 45.757 11.9952 43.849C11.9952 41.9411 13.5911 40.3551 15.6088 40.3551C17.6266 40.3551 19.2224 41.9411 19.2224 43.849Z" stroke="#6C26FF" stroke-width="1.70909"/>
<path d="M47.0243 44.3606C47.0243 46.2685 45.4284 47.8545 43.4107 47.8545C41.3929 47.8545 39.7971 46.2685 39.7971 44.3606C39.7971 42.4527 41.3929 40.8667 43.4107 40.8667C45.4284 40.8667 47.0243 42.4527 47.0243 44.3606Z" stroke="#6C26FF" stroke-width="1.70909"/>
</g>
<defs>
<clipPath id="clip0">
<rect width="141" height="78.1909" fill="white"/>
</clipPath>
<clipPath id="clip1">
<rect width="80.8725" height="134.43" fill="white" transform="translate(140.586 2.32278) rotate(90.9901)"/>
</clipPath>
</defs>
</svg>
